<?xml version="1.0" encoding="UTF-8"?>
<svg width="10px" height="16px" viewBox="1 1 10 16" version="1.1" xmlns="http://www.w3.org/2000/svg" xmlns:xlink="http://www.w3.org/1999/xlink">
    <!-- Generator: Sketch 58 (84663) - https://sketch.com -->
    <title>Group 2 Copy 2</title>
    <desc>Created with Sketch.</desc>
    <defs>
<!--        <rect id="path-1" x="0" y="0" width="10" height="16" rx="1"></rect>-->
        <filter x="-75.0%" y="-34.4%" width="250.0%" height="193.8%" filterUnits="objectBoundingBox" id="filter-2">
            <feMorphology radius="0.5" operator="dilate" in="SourceAlpha" result="shadowSpreadOuter1"></feMorphology>
            <feOffset dx="0" dy="2" in="shadowSpreadOuter1" result="shadowOffsetOuter1"></feOffset>
            <feMorphology radius="1" operator="erode" in="SourceAlpha" result="shadowInner"></feMorphology>
            <feOffset dx="0" dy="2" in="shadowInner" result="shadowInner"></feOffset>
            <feComposite in="shadowOffsetOuter1" in2="shadowInner" operator="out" result="shadowOffsetOuter1"></feComposite>
            <feGaussianBlur stdDeviation="2" in="shadowOffsetOuter1" result="shadowBlurOuter1"></feGaussianBlur>
            <feColorMatrix values="0 0 0 0 0   0 0 0 0 0   0 0 0 0 0  0 0 0 0 0" type="matrix" in="shadowBlurOuter1"></feColorMatrix>
        </filter>
    </defs>
    <g id="PDFNavigation-Updates-(Web-&amp;-mobile)" stroke="none" stroke-width="1" fill="none" fill-rule="evenodd">
        <g id="PDF---pressed/let-go---location-2" transform="translate(-126.000000, -724.000000)">
            <g id="Group-8" transform="translate(6.000000, 692.000000)">
                <g id="Group" transform="translate(-5.000000, 33.000000)">
                    <g id="Group-2-Copy-2" transform="translate(126.000000, 0.000000)">
                        <path d="M1,12 L9,12 C9.55228475,12 10,12.4477153 10,13 L10,15 C10,15.5522847 9.55228475,16 9,16 L1,16 C0.44771525,16 6.76353751e-17,15.5522847 0,15 L0,13 C-6.76353751e-17,12.4477153 0.44771525,12 1,12 Z" id="Rectangle-Copy-2" fill="#FFFFFF"></path>
                        <path d="M1,6 L9,6 C9.55228475,6 10,6.44771525 10,7 L10,9 C10,9.55228475 9.55228475,10 9,10 L1,10 C0.44771525,10 6.76353751e-17,9.55228475 0,9 L0,7 C-6.76353751e-17,6.44771525 0.44771525,6 1,6 Z" id="Rectangle-Copy-3" fill="#FFFFFF"></path>
                        <g id="Rectangle-Copy-21">
                            <use fill="black" fill-opacity="1" filter="url(#filter-2)" xlink:href="#path-1"></use>
                            <use stroke="#979797" stroke-width="1" xlink:href="#path-1"></use>
                        </g>
                    </g>
                </g>
            </g>
        </g>
    </g>
</svg>