<?xml version="1.0" encoding="UTF-8"?>
<svg width="10px" height="16px" viewBox="0 0 10 16" version="1.1" xmlns="http://www.w3.org/2000/svg" xmlns:xlink="http://www.w3.org/1999/xlink">
    <!-- Generator: Sketch 58 (84663) - https://sketch.com -->
    <title>Combined Shape</title>
    <desc>Created with Sketch.</desc>
    <g id="PDFNavigation-Updates-(Web-&amp;-mobile)" stroke="none" stroke-width="1" fill="none" fill-rule="evenodd" fill-opacity="0.624508304">
        <g id="PDF---pressed" transform="translate(-39.000000, -725.000000)" fill="#D8D8D8">
            <g id="Group-8" transform="translate(6.000000, 692.000000)">
                <path d="M42,33 C42.5522847,33 43,33.4477153 43,34 L43,48 C43,48.5522847 42.5522847,49 42,49 L34,49 C33.4477153,49 33,48.5522847 33,48 L33,34 C33,33.4477153 33.4477153,33 34,33 L42,33 Z M40.5,38 L35.5,38 C35.2238576,38 35,38.2238576 35,38.5 C35,38.7454599 35.1768752,38.9496084 35.4101244,38.9919443 L35.5,39 L40.5,39 C40.7761424,39 41,38.7761424 41,38.5 C41,38.2238576 40.7761424,38 40.5,38 Z M40.5,36 L37.5,36 C37.2238576,36 37,36.2238576 37,36.5 C37,36.7454599 37.1768752,36.9496084 37.4101244,36.9919443 L37.5,37 L40.5,37 C40.7761424,37 41,36.7761424 41,36.5 C41,36.2238576 40.7761424,36 40.5,36 Z M35.5,36 C35.2238576,36 35,36.2238576 35,36.5 C35,36.7761424 35.2238576,37 35.5,37 C35.7761424,37 36,36.7761424 36,36.5 C36,36.2238576 35.7761424,36 35.5,36 Z" id="Combined-Shape"></path>
            </g>
        </g>
    </g>
</svg>