<?xml version="1.0" encoding="UTF-8"?>
<svg width="18px" height="18px" viewBox="0 0 18 18" version="1.1" xmlns="http://www.w3.org/2000/svg" xmlns:xlink="http://www.w3.org/1999/xlink">
    <!-- Generator: Sketch 58 (84663) - https://sketch.com -->
    <title>history-18</title>
    <desc>Created with Sketch.</desc>
    <g id="PDFNavigation-Updates-(Web-&amp;-mobile)" stroke="none" stroke-width="1" fill="none" fill-rule="evenodd">
        <g id="PDF---tapped---location-2" transform="translate(-21.000000, -141.000000)">
            <g id="Tooltip/Point-Left" transform="translate(5.000000, 134.000000)">
                <g id="Icons/Course-Content/history-18" transform="translate(16.000000, 7.000000)">
                    <g id="history-18">
                        <rect id="trim" x="0" y="0" width="18" height="18"></rect>
                        <path d="M10,9.59115917 L11.7082195,11.2993787 C12.0972602,11.6884193 12.0972602,12.3191789 11.7082195,12.7082195 C11.3191789,13.0972602 10.6884193,13.0972602 10.2993787,12.7082195 L8.35734629,10.7661871 C8.13887576,10.5827482 8,10.3075922 8,10 L8,5.29999924 C8,4.74771449 8.44771525,4.29999924 9,4.29999924 C9.55228475,4.29999924 10,4.74771449 10,5.29999924 L10,9.59115917 Z" id="icon" fill="#FFFFFF"></path>
                        <path d="M5.07000732,6.27499962 C5.55325648,6.27499962 5.95001221,6.66675046 5.95001221,7.14999962 C5.95001221,7.63324877 5.55325648,8.02499962 5.07000732,8.02499962 L0.923576133,8.02499962 C0.681951555,8.02499962 0.463201555,7.92706191 0.304857699,7.76871805 C0.146513844,7.6103742 0.0485761328,7.3916242 0.0485761328,7.14999962 L0.0485761328,3 C0.0485761328,2.51675084 0.440326977,2.11999512 0.923576133,2.11999512 C1.40682529,2.11999512 1.79857613,2.51675084 1.79857613,3 L1.79857613,4.61758595 C2.53074803,3.38862021 3.5702945,2.35180246 4.84857918,1.61378445 C8.91406648,-0.733425737 14.1125849,0.659513082 16.4597951,4.72500038 C18.8070053,8.79048768 17.4140665,13.9890061 13.3485792,16.3362163 C9.28309189,18.6834265 4.08457344,17.2904877 1.73736325,13.2250004 C1.49573867,12.8064943 1.63912944,12.2713527 2.05763548,12.0297282 C2.47614153,11.7881036 3.01128313,11.9314943 3.25290771,12.3500004 C5.11686874,15.5784756 9.24510398,16.6846329 12.4735792,14.8206719 C15.7020544,12.9567108 16.8082117,8.82847559 14.9442507,5.60000038 C13.0802896,2.37152517 8.95205439,1.26536788 5.72357918,3.12932891 C4.45296028,3.86292107 3.48123234,4.96534921 2.91147617,6.27499962 L5.07000732,6.27499962 Z" id="icon" fill="#FFFFFF"></path>
                    </g>
                </g>
            </g>
        </g>
    </g>
</svg>