<?xml version="1.0" encoding="UTF-8"?>
<svg width="18px" height="18px" viewBox="0 0 18 18" version="1.1" xmlns="http://www.w3.org/2000/svg" xmlns:xlink="http://www.w3.org/1999/xlink">
    <!-- Generator: Sketch 58 (84663) - https://sketch.com -->
    <title>time-18</title>
    <desc>Created with Sketch.</desc>
    <g id="PDFNavigation-Updates-(Web-&amp;-mobile)" stroke="none" stroke-width="1" fill="none" fill-rule="evenodd">
        <g id="PDF---tapped---location-2" transform="translate(-60.000000, -766.000000)">
            <g id="Group" transform="translate(53.000000, 759.000000)">
                <g id="time-18" transform="translate(7.000000, 7.000000)">
                    <g>
                        <rect id="trim" x="0" y="0" width="18" height="18"></rect>
                        <path d="M9,16.25 C13.0040644,16.25 16.25,13.0040644 16.25,9 C16.25,4.99593556 13.0040644,1.75 9,1.75 C4.99593556,1.75 1.75,4.99593556 1.75,9 C1.75,13.0040644 4.99593556,16.25 9,16.25 Z M9,18 C4.02943725,18 0,13.9705627 0,9 C0,4.02943725 4.02943725,0 9,0 C13.9705627,0 18,4.02943725 18,9 C18,13.9705627 13.9705627,18 9,18 Z" id="icon" fill="#C7C7C7" fill-rule="nonzero"></path>
                        <path d="M10,9.59115917 L11.7082195,11.2993787 C12.0972602,11.6884193 12.0972602,12.3191789 11.7082195,12.7082195 C11.3191789,13.0972602 10.6884193,13.0972602 10.2993787,12.7082195 L8.35734629,10.7661871 C8.13887576,10.5827482 8,10.3075922 8,10 L8,5 C8,4.44771525 8.44771525,4 9,4 C9.55228475,4 10,4.44771525 10,5 L10,9.59115917 Z" id="icon" fill="#C7C7C7"></path>
                    </g>
                </g>
            </g>
        </g>
    </g>
</svg>